# xmcd
#
# Track frame offsets:
#      150
#      13115
#      33735
#      51383
#      54775
#      94645
#      111353
#      116144
#      152339
#      166684
#      171994
#      196259
#      214022
#      219172
#      241886
#      258988
#      263720
#      275963
#      294445
#      326400
# 
# Disc length: 4498 seconds
#
# Revision: 6
# Processed by: cddbd v1.4PL0 Copyright (c) Steve Scherf et al.
#
# Submitted via: FreeRIP 1.20
#
DISCID=1c119014
DTITLE=Adam Sandler - What The Hell Happened To Me?
DYEAR=1995
DGENRE=Comedy
TTITLE0=Joining The Cult
TTITLE1=Respect
TTITLE2=Ode To My Car
TTITLE3=The Excited Southerner Orders A Meal
TTITLE4=The Goat
TTITLE5=The Chanukah Song
TTITLE6=The Excited Southerner Gets Pulled Over
TTITLE7=The Hypnotist
TTITLE8=Steve Polychronopolous
TTITLE9=The Excited Southerner At A Job Interview
TTITLE10=Do It For Your Mama
TTITLE11=Crazy Love
TTITLE12=The Excited Southerner Meets Mel Gibson
TTITLE13=The Adventures Of The Cow
TTITLE14=Dip Doodle
TTITLE15=The Excited Southerner Proposes To A Woman
TTITLE16=Memory Lane
TTITLE17=Mr. Bake-o
TTITLE18=Sex Or Weight Lifting
TTITLE19=What The Hell Happened To Me?
EXTD=YEAR: 1995 ID3G: 57
EXTT0=
EXTT1=
EXTT2=
EXTT3=
EXTT4=
EXTT5=
EXTT6=
EXTT7=
EXTT8=
EXTT9=
EXTT10=
EXTT11=
EXTT12=
EXTT13=
EXTT14=
EXTT15=
EXTT16=
EXTT17=
EXTT18=
EXTT19=
PLAYORDER=
